<svg xmlns="http://www.w3.org/2000/svg" width="48" height="43" fill="none" viewBox="0 0 48 43">
    <g transform="matrix(.98816 0 0 .98816 .494 .494)">
        <mask id="a" width="50" height="44" x="-1" y="-1" fill="#000" maskUnits="userSpaceOnUse">
            <path fill="#fff" d="M-1-1h50v44H-1z"/>
            <path d="M23.788 0C10.665 0 0 9.422 0 21c0 4.575 1.71 9.053 4.827 12.685-.65 1.438-1.602 2.575-2.845 3.38a1.815 1.815 0 0 0-.787 1.924A1.789 1.789 0 0 0 2.7 40.378c1.982.272 5.848.418 9.412-1.72a1.188 1.188 0 1 0-1.224-2.04c-2.234 1.341-4.652 1.594-6.41 1.536 1.253-1.127 2.205-2.555 2.846-4.274a1.203 1.203 0 0 0-.243-1.224C4 29.305 2.38 25.284 2.38 21c0-10.267 9.606-18.62 21.408-18.62 11.801 0 21.408 8.353 21.408 18.62 0 10.267-9.607 18.62-21.408 18.62-1.972 0-3.934-.233-5.819-.7a1.186 1.186 0 0 0-1.437.875 1.186 1.186 0 0 0 .874 1.438 26.94 26.94 0 0 0 6.382.767c13.122 0 23.787-9.422 23.787-21S36.91 0 23.788 0z"/>
        </mask>
        <path fill="#3C63D7" d="M23.788 0C10.665 0 0 9.422 0 21c0 4.575 1.71 9.053 4.827 12.685-.65 1.438-1.602 2.575-2.845 3.38a1.815 1.815 0 0 0-.787 1.924A1.789 1.789 0 0 0 2.7 40.378c1.982.272 5.848.418 9.412-1.72a1.188 1.188 0 1 0-1.224-2.04c-2.234 1.341-4.652 1.594-6.41 1.536 1.253-1.127 2.205-2.555 2.846-4.274a1.203 1.203 0 0 0-.243-1.224C4 29.305 2.38 25.284 2.38 21c0-10.267 9.606-18.62 21.408-18.62 11.801 0 21.408 8.353 21.408 18.62 0 10.267-9.607 18.62-21.408 18.62-1.972 0-3.934-.233-5.819-.7a1.186 1.186 0 0 0-1.437.875 1.186 1.186 0 0 0 .874 1.438 26.94 26.94 0 0 0 6.382.767c13.122 0 23.787-9.422 23.787-21S36.91 0 23.788 0z"/>
        <path stroke="#3C63D7" d="M23.788 0C10.665 0 0 9.422 0 21c0 4.575 1.71 9.053 4.827 12.685-.65 1.438-1.602 2.575-2.845 3.38a1.815 1.815 0 0 0-.787 1.924A1.789 1.789 0 0 0 2.7 40.378c1.982.272 5.848.418 9.412-1.72a1.188 1.188 0 1 0-1.224-2.04c-2.234 1.341-4.652 1.594-6.41 1.536 1.253-1.127 2.205-2.555 2.846-4.274a1.203 1.203 0 0 0-.243-1.224C4 29.305 2.38 25.284 2.38 21c0-10.267 9.606-18.62 21.408-18.62 11.801 0 21.408 8.353 21.408 18.62 0 10.267-9.607 18.62-21.408 18.62-1.972 0-3.934-.233-5.819-.7a1.186 1.186 0 0 0-1.437.875 1.186 1.186 0 0 0 .874 1.438 26.94 26.94 0 0 0 6.382.767c13.122 0 23.787-9.422 23.787-21S36.91 0 23.788 0z" mask="url(#a)"/>
    </g>
    <g transform="matrix(.98816 0 0 .98816 22.483 19.738)">
        <mask id="b" width="5" height="5" x="-1" y="-1" fill="#000" maskUnits="userSpaceOnUse">
            <path fill="#fff" d="M-1-1h5v5h-5z"/>
            <path d="M1.525 3.05a1.525 1.525 0 1 0 0-3.05 1.525 1.525 0 0 0 0 3.05z"/>
        </mask>
        <path fill="#3C63D7" d="M1.525 3.05a1.525 1.525 0 1 0 0-3.05 1.525 1.525 0 0 0 0 3.05z"/>
        <path stroke="#3C63D7" d="M1.525 3.05a1.525 1.525 0 1 0 0-3.05 1.525 1.525 0 0 0 0 3.05z" mask="url(#b)"/>
    </g>
    <g transform="matrix(.98816 0 0 .98816 15.995 19.738)">
        <mask id="c" width="5" height="5" x="-1" y="-1" fill="#000" maskUnits="userSpaceOnUse">
            <path fill="#fff" d="M-1-1h5v5h-5z"/>
            <path d="M1.525 3.05a1.525 1.525 0 1 0 0-3.05 1.525 1.525 0 0 0 0 3.05z"/>
        </mask>
        <path fill="#3C63D7" d="M1.525 3.05a1.525 1.525 0 1 0 0-3.05 1.525 1.525 0 0 0 0 3.05z"/>
        <path stroke="#3C63D7" d="M1.525 3.05a1.525 1.525 0 1 0 0-3.05 1.525 1.525 0 0 0 0 3.05z" mask="url(#c)"/>
    </g>
    <g transform="matrix(.98816 0 0 .98816 27.984 19.738)">
        <mask id="d" width="5" height="5" x="-1" y="-1" fill="#000" maskUnits="userSpaceOnUse">
            <path fill="#fff" d="M-1-1h5v5h-5z"/>
            <path d="M1.525 3.05a1.525 1.525 0 1 0 0-3.05 1.525 1.525 0 0 0 0 3.05z"/>
        </mask>
        <path fill="#3C63D7" d="M1.525 3.05a1.525 1.525 0 1 0 0-3.05 1.525 1.525 0 0 0 0 3.05z"/>
        <path stroke="#3C63D7" d="M1.525 3.05a1.525 1.525 0 1 0 0-3.05 1.525 1.525 0 0 0 0 3.05z" mask="url(#d)"/>
    </g>
</svg>
