<svg xmlns="http://www.w3.org/2000/svg" width="42" height="43" fill="none" viewBox="0 0 42 43">
    <g transform="translate(.5 1.54)">
        <mask id="a" width="41" height="43" x="-1" y="-1" fill="#000" maskUnits="userSpaceOnUse">
            <path fill="#fff" d="M-1-1h41v43H-1z"/>
            <path d="M36.751 22.585v6.904c-.126.523-.97 3.597-3.5 3.597a.875.875 0 0 0-.875.875v5.25H15.751v-6.125c0-2.769-1.716-3.5-2.625-3.5h-5.25a1.648 1.648 0 0 1-1.75-1.75v-3.262c0-.251-.107-.49-.295-.656a5.055 5.055 0 0 0-3.205-1.332h-.011a.768.768 0 0 1-.845-.682l4.248-7.7a.88.88 0 0 0 .108-.423v-1.696a11.364 11.364 0 0 1 6.93-10.474L12.373 0a13.11 13.11 0 0 0-7.997 12.085v1.471L.11 21.288A.88.88 0 0 0 0 21.71v.15a2.551 2.551 0 0 0 2.625 2.476 3.133 3.133 0 0 1 1.75.655v2.845a3.401 3.401 0 0 0 3.5 3.5h5.226c.15.01.9.14.9 1.75v7c0 .483.39.875.874.875h18.375a.875.875 0 0 0 .875-.875v-5.328c2.735-.517 4.04-3.403 4.358-4.998a.879.879 0 0 0 .017-.175v-7h-1.75z"/>
        </mask>
        <path fill="#3C63D7" d="M36.751 22.585v6.904c-.126.523-.97 3.597-3.5 3.597a.875.875 0 0 0-.875.875v5.25H15.751v-6.125c0-2.769-1.716-3.5-2.625-3.5h-5.25a1.648 1.648 0 0 1-1.75-1.75v-3.262c0-.251-.107-.49-.295-.656a5.055 5.055 0 0 0-3.205-1.332h-.011a.768.768 0 0 1-.845-.682l4.248-7.7a.88.88 0 0 0 .108-.423v-1.696a11.364 11.364 0 0 1 6.93-10.474L12.373 0a13.11 13.11 0 0 0-7.997 12.085v1.471L.11 21.288A.88.88 0 0 0 0 21.71v.15a2.551 2.551 0 0 0 2.625 2.476 3.133 3.133 0 0 1 1.75.655v2.845a3.401 3.401 0 0 0 3.5 3.5h5.226c.15.01.9.14.9 1.75v7c0 .483.39.875.874.875h18.375a.875.875 0 0 0 .875-.875v-5.328c2.735-.517 4.04-3.403 4.358-4.998a.879.879 0 0 0 .017-.175v-7h-1.75z"/>
        <path stroke="#3C63D7" d="M36.751 22.585v6.904c-.126.523-.97 3.597-3.5 3.597a.875.875 0 0 0-.875.875v5.25H15.751v-6.125c0-2.769-1.716-3.5-2.625-3.5h-5.25a1.648 1.648 0 0 1-1.75-1.75v-3.262c0-.251-.107-.49-.295-.656a5.055 5.055 0 0 0-3.205-1.332h-.011a.768.768 0 0 1-.845-.682l4.248-7.7a.88.88 0 0 0 .108-.423v-1.696a11.364 11.364 0 0 1 6.93-10.474L12.373 0a13.11 13.11 0 0 0-7.997 12.085v1.471L.11 21.288A.88.88 0 0 0 0 21.71v.15a2.551 2.551 0 0 0 2.625 2.476 3.133 3.133 0 0 1 1.75.655v2.845a3.401 3.401 0 0 0 3.5 3.5h5.226c.15.01.9.14.9 1.75v7c0 .483.39.875.874.875h18.375a.875.875 0 0 0 .875-.875v-5.328c2.735-.517 4.04-3.403 4.358-4.998a.879.879 0 0 0 .017-.175v-7h-1.75z" mask="url(#a)"/>
    </g>
    <g transform="translate(15.25 .5)">
        <mask id="b" width="28" height="27" x="-1" y="-1" fill="#000" maskUnits="userSpaceOnUse">
            <path fill="#fff" d="M-1-1h28v27H-1z"/>
            <path d="M21.875 0h-17.5A4.38 4.38 0 0 0 0 4.375v12.25A4.38 4.38 0 0 0 4.375 21H8.75v3.5a.875.875 0 0 0 1.383.712L16.03 21h5.845a4.38 4.38 0 0 0 4.375-4.375V4.375A4.38 4.38 0 0 0 21.875 0zM24.5 16.625a2.625 2.625 0 0 1-2.625 2.625H15.75a.875.875 0 0 0-.508.163L10.5 22.8v-2.675a.875.875 0 0 0-.875-.875h-5.25a2.625 2.625 0 0 1-2.625-2.625V4.375A2.625 2.625 0 0 1 4.375 1.75h17.5A2.625 2.625 0 0 1 24.5 4.375v12.25z"/>
        </mask>
        <path fill="#3C63D7" d="M21.875 0h-17.5A4.38 4.38 0 0 0 0 4.375v12.25A4.38 4.38 0 0 0 4.375 21H8.75v3.5a.875.875 0 0 0 1.383.712L16.03 21h5.845a4.38 4.38 0 0 0 4.375-4.375V4.375A4.38 4.38 0 0 0 21.875 0zM24.5 16.625a2.625 2.625 0 0 1-2.625 2.625H15.75a.875.875 0 0 0-.508.163L10.5 22.8v-2.675a.875.875 0 0 0-.875-.875h-5.25a2.625 2.625 0 0 1-2.625-2.625V4.375A2.625 2.625 0 0 1 4.375 1.75h17.5A2.625 2.625 0 0 1 24.5 4.375v12.25z"/>
        <path stroke="#3C63D7" d="M21.875 0h-17.5A4.38 4.38 0 0 0 0 4.375v12.25A4.38 4.38 0 0 0 4.375 21H8.75v3.5a.875.875 0 0 0 1.383.712L16.03 21h5.845a4.38 4.38 0 0 0 4.375-4.375V4.375A4.38 4.38 0 0 0 21.875 0zM24.5 16.625a2.625 2.625 0 0 1-2.625 2.625H15.75a.875.875 0 0 0-.508.163L10.5 22.8v-2.675a.875.875 0 0 0-.875-.875h-5.25a2.625 2.625 0 0 1-2.625-2.625V4.375A2.625 2.625 0 0 1 4.375 1.75h17.5A2.625 2.625 0 0 1 24.5 4.375v12.25z" mask="url(#b)"/>
    </g>
    <g transform="translate(19.626 8.375)">
        <mask id="c" width="19" height="9" x="-1" y="-1" fill="#000" maskUnits="userSpaceOnUse">
            <path fill="#fff" d="M-1-1h19v9H-1z"/>
            <path d="M13.125 0a.875.875 0 0 0-.619.256L7.875 4.888 4.994 2.006a.875.875 0 0 0-.619-.256H0V3.5h4.013l3.243 3.244a.875.875 0 0 0 1.238 0l4.993-4.994H17.5V0h-4.375z"/>
        </mask>
        <path fill="#3C63D7" d="M13.125 0a.875.875 0 0 0-.619.256L7.875 4.888 4.994 2.006a.875.875 0 0 0-.619-.256H0V3.5h4.013l3.243 3.244a.875.875 0 0 0 1.238 0l4.993-4.994H17.5V0h-4.375z"/>
        <path stroke="#3C63D7" d="M13.125 0a.875.875 0 0 0-.619.256L7.875 4.888 4.994 2.006a.875.875 0 0 0-.619-.256H0V3.5h4.013l3.243 3.244a.875.875 0 0 0 1.238 0l4.993-4.994H17.5V0h-4.375z" mask="url(#c)"/>
    </g>
</svg>
