<svg xmlns="http://www.w3.org/2000/svg" width="46" height="42" fill="none" viewBox="0 0 46 42">
    <g transform="matrix(.98238 0 0 .98238 10.533 .246)">
        <mask id="a" width="27" height="44" x="-1" y="-1" fill="#000" maskUnits="userSpaceOnUse">
            <path fill="#fff" d="M-1-1h27v44H-1z"/>
            <path d="M3.358 42h18.676a3.364 3.364 0 0 0 3.358-3.358V3.358A3.364 3.364 0 0 0 22.034 0H3.358A3.364 3.364 0 0 0 0 3.358v35.284A3.364 3.364 0 0 0 3.358 42zm19.7-9.798H2.324V7.749h20.734v24.453zm-1.034 7.474H3.358c-.57 0-1.034-.465-1.034-1.034v-4.116h20.734v4.116c0 .57-.465 1.034-1.034 1.034zM3.358 2.324h18.676c.569 0 1.034.465 1.034 1.034v2.067H2.324V3.358c0-.57.465-1.034 1.034-1.034z"/>
        </mask>
        <path fill="#3C63D7" d="M3.358 42h18.676a3.364 3.364 0 0 0 3.358-3.358V3.358A3.364 3.364 0 0 0 22.034 0H3.358A3.364 3.364 0 0 0 0 3.358v35.284A3.364 3.364 0 0 0 3.358 42zm19.7-9.798H2.324V7.749h20.734v24.453zm-1.034 7.474H3.358c-.57 0-1.034-.465-1.034-1.034v-4.116h20.734v4.116c0 .57-.465 1.034-1.034 1.034zM3.358 2.324h18.676c.569 0 1.034.465 1.034 1.034v2.067H2.324V3.358c0-.57.465-1.034 1.034-1.034z"/>
        <path stroke="#3C63D7" stroke-width=".5" d="M3.358 42h18.676a3.364 3.364 0 0 0 3.358-3.358V3.358A3.364 3.364 0 0 0 22.034 0H3.358A3.364 3.364 0 0 0 0 3.358v35.284A3.364 3.364 0 0 0 3.358 42zm19.7-9.798H2.324V7.749h20.734v24.453zm-1.034 7.474H3.358c-.57 0-1.034-.465-1.034-1.034v-4.116h20.734v4.116c0 .57-.465 1.034-1.034 1.034zM3.358 2.324h18.676c.569 0 1.034.465 1.034 1.034v2.067H2.324V3.358c0-.57.465-1.034 1.034-1.034z" mask="url(#a)"/>
    </g>
    <g transform="matrix(.98238 0 0 .98238 19.58 35.496)">
        <mask id="b" width="9" height="4" x="-1" y="-1" fill="#000" maskUnits="userSpaceOnUse">
            <path fill="#fff" d="M-1-1h9v4h-9z"/>
            <path d="M5.795 0H1.167a1.166 1.166 0 1 0 0 2.333h4.628a1.166 1.166 0 1 0 0-2.333z"/>
        </mask>
        <path fill="#3C63D7" d="M5.795 0H1.167a1.166 1.166 0 1 0 0 2.333h4.628a1.166 1.166 0 1 0 0-2.333z"/>
        <path stroke="#3C63D7" stroke-width=".5" d="M5.795 0H1.167a1.166 1.166 0 1 0 0 2.333h4.628a1.166 1.166 0 1 0 0-2.333z" mask="url(#b)"/>
    </g>
    <g transform="matrix(.98238 0 0 .98238 37.424 3.973)">
        <mask id="c" width="10" height="36" x="-1" y="-1" fill="#000" maskUnits="userSpaceOnUse">
            <path fill="#fff" d="M-1-1H9v36H-1z"/>
            <path d="M4.505 32.088H1.167a1.166 1.166 0 1 0 0 2.333h3.338a3.98 3.98 0 0 0 3.975-3.974V3.974A3.98 3.98 0 0 0 4.505 0H1.167a1.166 1.166 0 1 0 0 2.333h3.338c.911 0 1.65.74 1.65 1.65v26.474c0 .891-.739 1.631-1.65 1.631z"/>
        </mask>
        <path fill="#3C63D7" d="M4.505 32.088H1.167a1.166 1.166 0 1 0 0 2.333h3.338a3.98 3.98 0 0 0 3.975-3.974V3.974A3.98 3.98 0 0 0 4.505 0H1.167a1.166 1.166 0 1 0 0 2.333h3.338c.911 0 1.65.74 1.65 1.65v26.474c0 .891-.739 1.631-1.65 1.631z"/>
        <path stroke="#3C63D7" stroke-width=".5" d="M4.505 32.088H1.167a1.166 1.166 0 1 0 0 2.333h3.338a3.98 3.98 0 0 0 3.975-3.974V3.974A3.98 3.98 0 0 0 4.505 0H1.167a1.166 1.166 0 1 0 0 2.333h3.338c.911 0 1.65.74 1.65 1.65v26.474c0 .891-.739 1.631-1.65 1.631z" mask="url(#c)"/>
    </g>
    <g transform="matrix(.98238 0 0 .98238 .246 3.964)">
        <mask id="d" width="10" height="36" x="-1" y="-1" fill="#000" maskUnits="userSpaceOnUse">
            <path fill="#fff" d="M-1-1H9v36H-1z"/>
            <path d="M3.974 34.421h3.339a1.166 1.166 0 1 0 0-2.333H3.974c-.91 0-1.65-.74-1.65-1.65V3.984c0-.91.74-1.65 1.65-1.65h3.339a1.166 1.166 0 1 0 0-2.334H3.974A3.98 3.98 0 0 0 0 3.974v26.473a3.98 3.98 0 0 0 3.974 3.974z"/>
        </mask>
        <path fill="#3C63D7" d="M3.974 34.421h3.339a1.166 1.166 0 1 0 0-2.333H3.974c-.91 0-1.65-.74-1.65-1.65V3.984c0-.91.74-1.65 1.65-1.65h3.339a1.166 1.166 0 1 0 0-2.334H3.974A3.98 3.98 0 0 0 0 3.974v26.473a3.98 3.98 0 0 0 3.974 3.974z"/>
        <path stroke="#3C63D7" stroke-width=".5" d="M3.974 34.421h3.339a1.166 1.166 0 1 0 0-2.333H3.974c-.91 0-1.65-.74-1.65-1.65V3.984c0-.91.74-1.65 1.65-1.65h3.339a1.166 1.166 0 1 0 0-2.334H3.974A3.98 3.98 0 0 0 0 3.974v26.473a3.98 3.98 0 0 0 3.974 3.974z" mask="url(#d)"/>
    </g>
</svg>
