<svg xmlns="http://www.w3.org/2000/svg" width="35" height="43" fill="none" viewBox="0 0 35 43">
    <g transform="translate(.5 .5)">
        <mask id="a" width="36" height="44" x="-1" y="-1" fill="#000" maskUnits="userSpaceOnUse">
            <path fill="#fff" d="M-1-1h36v44H-1z"/>
            <path d="M0 22.194v16.73C0 40.617 1.377 42 3.063 42h27.874C32.623 42 34 40.617 34 38.924v-16.73c0-1.692-1.377-3.076-3.063-3.076h-2.156v-7.286C28.781 5.31 23.494 0 17 0 10.506 0 5.219 5.31 5.219 11.832c0 .584.47 1.057 1.052 1.057.582 0 1.053-.473 1.053-1.057 0-5.362 4.346-9.727 9.685-9.727 5.338 0 9.684 4.365 9.684 9.727v7.286H3.064A3.083 3.083 0 0 0 0 22.194zm31.904 0v16.73c0 .533-.436.97-.967.97H3.063a.973.973 0 0 1-.967-.97v-16.73c0-.532.436-.97.967-.97h27.874a.98.98 0 0 1 .967.97z"/>
        </mask>
        <path fill="#3C63D7" d="M0 22.194v16.73C0 40.617 1.377 42 3.063 42h27.874C32.623 42 34 40.617 34 38.924v-16.73c0-1.692-1.377-3.076-3.063-3.076h-2.156v-7.286C28.781 5.31 23.494 0 17 0 10.506 0 5.219 5.31 5.219 11.832c0 .584.47 1.057 1.052 1.057.582 0 1.053-.473 1.053-1.057 0-5.362 4.346-9.727 9.685-9.727 5.338 0 9.684 4.365 9.684 9.727v7.286H3.064A3.083 3.083 0 0 0 0 22.194zm31.904 0v16.73c0 .533-.436.97-.967.97H3.063a.973.973 0 0 1-.967-.97v-16.73c0-.532.436-.97.967-.97h27.874a.98.98 0 0 1 .967.97z"/>
        <path stroke="#3C63D7" d="M0 22.194v16.73C0 40.617 1.377 42 3.063 42h27.874C32.623 42 34 40.617 34 38.924v-16.73c0-1.692-1.377-3.076-3.063-3.076h-2.156v-7.286C28.781 5.31 23.494 0 17 0 10.506 0 5.219 5.31 5.219 11.832c0 .584.47 1.057 1.052 1.057.582 0 1.053-.473 1.053-1.057 0-5.362 4.346-9.727 9.685-9.727 5.338 0 9.684 4.365 9.684 9.727v7.286H3.064A3.083 3.083 0 0 0 0 22.194zm31.904 0v16.73c0 .533-.436.97-.967.97H3.063a.973.973 0 0 1-.967-.97v-16.73c0-.532.436-.97.967-.97h27.874a.98.98 0 0 1 .967.97z" mask="url(#a)"/>
    </g>
    <g transform="translate(12.23 26.767)">
        <mask id="b" width="11" height="11" x="-1" y="-1" fill="#000" maskUnits="userSpaceOnUse">
            <path fill="#fff" d="M-1-1h11v11H-1z"/>
            <path d="M4.27 8.575c2.352 0 4.269-1.924 4.269-4.287S6.622 0 4.269 0C1.916 0 0 1.925 0 4.288c0 2.371 1.916 4.287 4.27 4.287zm0-6.461a2.18 2.18 0 0 1 2.172 2.182A2.174 2.174 0 0 1 4.27 6.47a2.18 2.18 0 0 1-2.173-2.182c0-1.203.975-2.174 2.173-2.174z"/>
        </mask>
        <path fill="#3C63D7" d="M4.27 8.575c2.352 0 4.269-1.924 4.269-4.287S6.622 0 4.269 0C1.916 0 0 1.925 0 4.288c0 2.371 1.916 4.287 4.27 4.287zm0-6.461a2.18 2.18 0 0 1 2.172 2.182A2.174 2.174 0 0 1 4.27 6.47a2.18 2.18 0 0 1-2.173-2.182c0-1.203.975-2.174 2.173-2.174z"/>
        <path stroke="#3C63D7" d="M4.27 8.575c2.352 0 4.269-1.924 4.269-4.287S6.622 0 4.269 0C1.916 0 0 1.925 0 4.288c0 2.371 1.916 4.287 4.27 4.287zm0-6.461a2.18 2.18 0 0 1 2.172 2.182A2.174 2.174 0 0 1 4.27 6.47a2.18 2.18 0 0 1-2.173-2.182c0-1.203.975-2.174 2.173-2.174z" mask="url(#b)"/>
    </g>
</svg>
