<svg xmlns="http://www.w3.org/2000/svg" width="40" height="50" fill="none" viewBox="0 0 40 50">
    <path fill="#27AEFF" d="M38.506 44.315c-.267-1.63-1.136-3.256-2.45-4.577a9.44 9.44 0 0 0-1.635-1.32.968.968 0 0 0-1.038 0 9.44 9.44 0 0 0-1.635 1.32c-1.313 1.32-2.183 2.947-2.45 4.577-.285 1.75.146 3.306 1.213 4.38a4.311 4.311 0 0 0 1.888 1.106 5.223 5.223 0 0 0 1.514.199 6.454 6.454 0 0 0 1.49-.198 4.31 4.31 0 0 0 1.89-1.107c1.068-1.074 1.499-2.63 1.213-4.38zm-2.588 2.995c-.28.281-.626.484-1.031.604-.34.081-.675.124-.996.128a3.307 3.307 0 0 1-.955-.123 2.391 2.391 0 0 1-1.049-.609c-.612-.616-.85-1.567-.668-2.677.2-1.23.877-2.477 1.904-3.51.247-.249.508-.478.779-.686.271.208.532.437.779.685 2.002 2.015 2.568 4.849 1.237 6.188z"/>
    <path fill="#46557A" d="M38.182 28.928V26.32c0-5.624-4.547-10.199-10.136-10.199H21.73v-4.843c0-.601-.484-1.088-1.082-1.088h-2.858V7.733a3.946 3.946 0 0 0 2.685-2.701h1.752a2.845 2.845 0 0 0 2.626 1.77 2.853 2.853 0 0 0 2.841-2.859 2.853 2.853 0 0 0-2.84-2.858c-1.185 0-2.201.733-2.628 1.771h-1.75C20.005 1.21 18.496 0 16.71 0c-1.786 0-3.295 1.209-3.766 2.856h-1.75a2.845 2.845 0 0 0-2.628-1.771 2.853 2.853 0 0 0-2.84 2.858 2.853 2.853 0 0 0 2.84 2.86c1.184 0 2.2-.733 2.627-1.771h1.752a3.946 3.946 0 0 0 2.684 2.701v2.457h-2.858c-.597 0-1.081.487-1.081 1.088v4.843H2.162v-.74c0-.6-.484-1.088-1.08-1.088-.598 0-1.082.487-1.082 1.088v10.89c0 .601.484 1.088 1.081 1.088s1.081-.487 1.081-1.088v-.743l6.408.004a11.905 11.905 0 0 0 8.14 3.205c2.931 0 5.861-1.073 8.154-3.218h2.401c.87 0 1.578.712 1.578 1.587v1.822a2.173 2.173 0 0 0-1.82 2.146v2.31c0 1.2.97 2.176 2.163 2.176h8.652A2.171 2.171 0 0 0 40 33.384v-2.31c0-1.082-.79-1.979-1.818-2.146zM24.175 3.942a.682.682 0 0 1 .68-.68.682.682 0 1 1 0 1.366.682.682 0 0 1-.68-.68v-.003-.003zm-15.609.685a.682.682 0 0 1-.678-.683c0-.376.304-.683.678-.683a.682.682 0 1 1 0 1.366zm6.388-.68v-.002-.004a1.764 1.764 0 0 1 1.756-1.764c.969 0 1.756.792 1.757 1.767v.002c0 .974-.788 1.766-1.757 1.766a1.764 1.764 0 0 1-1.756-1.764zm-1.102 8.42h5.716v3.755h-5.716v-3.755zm13.413 10.978h-2.847c-.335 0-.635.153-.833.395-3.834 3.785-10.012 3.764-13.819-.066a1.073 1.073 0 0 0-.812-.317l-6.792-.004v-5.055h25.884c4.397 0 7.974 3.6 7.974 8.023v2.578h-5.015v-1.792c0-2.075-1.678-3.762-3.74-3.762zm10.573 10.04h-8.652v-2.31h8.652l.001 2.31h-.001z"/>
</svg>
